<svg width="16" height="16" viewBox="0 0 16 16" fill="none" xmlns="http://www.w3.org/2000/svg">
<path fill-rule="evenodd" clip-rule="evenodd" d="M7.76 11.8H7.04C6.2387 11.8 5.6405 12.1349 5.24 13.76C4.8395 15.3851 3.3561 16 2.11609 16C0.876095 16 2.09808e-07 14.894 0 13.76C-2.09808e-07 12.626 1.44 3.54107e-06 4.4 0H7.76V11.8ZM6.52 6.68V7.96H5.16V9.64H6.52V10.92H7.4V6.68H6.52ZM5.28 1.88C4.37425 1.88 3.64 2.61425 3.64 3.52C3.64 4.42575 4.37425 5.16 5.28 5.16C6.18575 5.16 6.92 4.42575 6.92 3.52C6.92 2.61425 6.18575 1.88 5.28 1.88Z" fill="white"/>
<path fill-rule="evenodd" clip-rule="evenodd" d="M15.04 0C15.5702 0 16 0.429807 16 0.96V13.44C16 13.9702 15.5702 14.4 15.04 14.4H8.08V0H15.04ZM8.84 11.64V13.64H14.72C15.0072 13.64 15.24 13.4072 15.24 13.12V12.16C15.24 11.8728 15.0072 11.64 14.72 11.64H8.84ZM8.84 8.92V10.92H9.2C9.48719 10.92 9.72 10.6872 9.72 10.4V9.44C9.72 9.15281 9.48719 8.92 9.2 8.92H8.84ZM10.96 8.92C10.6728 8.92 10.44 9.15281 10.44 9.44V10.4C10.44 10.6872 10.6728 10.92 10.96 10.92H14.72C15.0072 10.92 15.24 10.6872 15.24 10.4V9.44C15.24 9.15281 15.0072 8.92 14.72 8.92H10.96ZM8.84 6.2V8.2H9.92C10.2072 8.2 10.44 7.96719 10.44 7.68V6.72C10.44 6.43281 10.2072 6.2 9.92 6.2H8.84ZM11.68 6.2C11.3928 6.2 11.16 6.43281 11.16 6.72V7.68C11.16 7.96719 11.3928 8.2 11.68 8.2H14.72C15.0072 8.2 15.24 7.96719 15.24 7.68V6.72C15.24 6.43281 15.0072 6.2 14.72 6.2H11.68ZM9.36 3.48C9.07281 3.48 8.84 3.71281 8.84 4V4.96C8.84 5.24719 9.07281 5.48 9.36 5.48H10.32C10.6072 5.48 10.84 5.24719 10.84 4.96V4C10.84 3.71281 10.6072 3.48 10.32 3.48H9.36ZM12.08 3.48C11.7928 3.48 11.56 3.71281 11.56 4V4.96C11.56 5.24719 11.7928 5.48 12.08 5.48H14.72C15.0072 5.48 15.24 5.24719 15.24 4.96V4C15.24 3.71281 15.0072 3.48 14.72 3.48H12.08ZM8.84 0.76V2.76H9.44C9.72719 2.76 9.96 2.52719 9.96 2.24V1.28C9.96 0.992812 9.72719 0.76 9.44 0.76H8.84ZM11.2 0.76C10.9128 0.76 10.68 0.992812 10.68 1.28V2.24C10.68 2.52719 10.9128 2.76 11.2 2.76H14.72C15.0072 2.76 15.24 2.52719 15.24 2.24V1.28C15.24 0.992812 15.0072 0.76 14.72 0.76H11.2Z" fill="white"/>
</svg>
