<svg width="200" height="200" viewBox="0 0 200 200" fill="none" xmlns="http://www.w3.org/2000/svg">
<path fill-rule="evenodd" clip-rule="evenodd" d="M97 147.5H88C77.9837 147.5 70.5062 151.687 65.5 172C60.4938 192.313 41.9512 200 26.4512 200C10.9512 200 2.6226e-06 186.175 0 172C-2.6226e-06 157.825 18 4.42633e-05 55 0H97V147.5ZM81.5 83.5V99.5H64.5V120.5H81.5V136.5H92.5V83.5H81.5ZM66 23.5C54.6782 23.5 45.5 32.6782 45.5 44C45.5 55.3218 54.6782 64.5 66 64.5C77.3218 64.5 86.5 55.3218 86.5 44C86.5 32.6782 77.3218 23.5 66 23.5Z" fill="black"/>
<path fill-rule="evenodd" clip-rule="evenodd" d="M188 0C194.627 0 200 5.37258 200 12V168C200 174.627 194.627 180 188 180H101V0H188ZM110.5 145.5V170.5H184C187.59 170.5 190.5 167.59 190.5 164V152C190.5 148.41 187.59 145.5 184 145.5H110.5ZM110.5 111.5V136.5H115C118.59 136.5 121.5 133.59 121.5 130V118C121.5 114.41 118.59 111.5 115 111.5H110.5ZM137 111.5C133.41 111.5 130.5 114.41 130.5 118V130C130.5 133.59 133.41 136.5 137 136.5H184C187.59 136.5 190.5 133.59 190.5 130V118C190.5 114.41 187.59 111.5 184 111.5H137ZM110.5 77.5V102.5H124C127.59 102.5 130.5 99.5899 130.5 96V84C130.5 80.4101 127.59 77.5 124 77.5H110.5ZM146 77.5C142.41 77.5 139.5 80.4101 139.5 84V96C139.5 99.5899 142.41 102.5 146 102.5H184C187.59 102.5 190.5 99.5899 190.5 96V84C190.5 80.4101 187.59 77.5 184 77.5H146ZM117 43.5C113.41 43.5 110.5 46.4101 110.5 50V62C110.5 65.5899 113.41 68.5 117 68.5H129C132.59 68.5 135.5 65.5899 135.5 62V50C135.5 46.4101 132.59 43.5 129 43.5H117ZM151 43.5C147.41 43.5 144.5 46.4101 144.5 50V62C144.5 65.5899 147.41 68.5 151 68.5H184C187.59 68.5 190.5 65.5899 190.5 62V50C190.5 46.4101 187.59 43.5 184 43.5H151ZM110.5 9.5V34.5H118C121.59 34.5 124.5 31.5899 124.5 28V16C124.5 12.4101 121.59 9.5 118 9.5H110.5ZM140 9.5C136.41 9.5 133.5 12.4101 133.5 16V28C133.5 31.5899 136.41 34.5 140 34.5H184C187.59 34.5 190.5 31.5899 190.5 28V16C190.5 12.4101 187.59 9.5 184 9.5H140Z" fill="black"/>
</svg>
